<?xml version="1.0" encoding="utf-8"?>
<!-- Generator: Adobe Illustrator 25.2.1, SVG Export Plug-In . SVG Version: 6.00 Build 0)  -->
<svg version="1.1" id="Camada_1" xmlns="http://www.w3.org/2000/svg" xmlns:xlink="http://www.w3.org/1999/xlink" x="0px" y="0px"
	 viewBox="0 0 511 509" style="enable-background:new 0 0 511 509;" xml:space="preserve">
<style type="text/css">
	.st0{fill-rule:evenodd;clip-rule:evenodd;fill:url(#SVGID_1_);}
	.st1{fill-rule:evenodd;clip-rule:evenodd;fill:url(#SVGID_2_);}
	.st2{fill-rule:evenodd;clip-rule:evenodd;fill:url(#SVGID_3_);}
	.st3{fill-rule:evenodd;clip-rule:evenodd;fill:url(#SVGID_4_);}
</style>
<g>
	
		<linearGradient id="SVGID_1_" gradientUnits="userSpaceOnUse" x1="82.0914" y1="110.702" x2="435.8987" y2="110.702" gradientTransform="matrix(-1 0 0 -1 511 509)">
		<stop  offset="0" style="stop-color:#00A5F0"/>
		<stop  offset="1" style="stop-color:#00D7D7;stop-opacity:0"/>
	</linearGradient>
	<path class="st0" d="M215.5,310c0,0-139.9,120-137.8,141.1c0,0-16.6,44.3,35.5,50.6c0,0,10.5,4.2,50.1-16.8c0,0,87.7-46.4,165-6.4
		l41.9,18.9c7.2,3.2,15.1,4.6,23,4.2c6.2,0.1,12.3-1.4,17.7-4.4c5.4-3,9.9-7.4,13.1-12.8c3.2-5.3,4.9-11.5,5-17.7
		c0.1-6.2-1.5-12.4-4.5-17.8c2.1-23.2-137.8-141.1-137.8-141.1c-8.8-6.2-18.7-10.5-29.2-12.6c-7.6-1.1-15.4-0.3-22.7,2.3
		c-7.3,2.6-13.9,6.8-19.2,12.4V310z"/>
	
		<linearGradient id="SVGID_2_" gradientUnits="userSpaceOnUse" x1="82.0914" y1="397.4078" x2="435.8987" y2="397.4078" gradientTransform="matrix(-1 0 0 -1 511 509)">
		<stop  offset="0" style="stop-color:#00A5F0"/>
		<stop  offset="1" style="stop-color:#00D7D7;stop-opacity:0"/>
	</linearGradient>
	<path class="st1" d="M215.5,200.5c0,0-139.9-120.4-137.8-141.6c0,0-16.6-44.2,35.5-50.7c0,0,10.5-4.2,50.1,17
		c0,0,87.7,46.3,165,6.2l41.9-18.9c7.2-3.3,15.1-4.8,23-4.3c6.2-0.1,12.3,1.4,17.7,4.4c5.4,3,9.9,7.4,13.1,12.8s4.9,11.5,5,17.7
		c0.1,6.2-1.5,12.4-4.5,17.8c2.1,23.3-137.8,141.6-137.8,141.6c-8.8,6.2-18.7,10.5-29.2,12.7C242,216,227,210.7,215.5,200.5
		L215.5,200.5z"/>
	
		<linearGradient id="SVGID_3_" gradientUnits="userSpaceOnUse" x1="8.8902" y1="254.0548" x2="216.2944" y2="254.0548" gradientTransform="matrix(-1 0 0 -1 511 509)">
		<stop  offset="0" style="stop-color:#00A5F0"/>
		<stop  offset="1" style="stop-color:#00D7D7;stop-opacity:0"/>
	</linearGradient>
	<path class="st2" d="M309.8,217.1c0,0,118.2-139.7,139.4-139.7c5.9-2.2,12.2-2.9,18.4-2.2c6.2,0.8,12.1,3,17.3,6.5
		c5.2,3.5,9.4,8.2,12.4,13.7c3,5.5,4.6,11.7,4.7,17.9c0,0,2.3,10.6-16.8,50.8c0,0-48.6,91-6.4,169.3l17,42.5
		c3.5,7.2,4.9,15.3,4.2,23.3c-0.1,6.2-1.8,12.2-4.9,17.5s-7.5,9.8-12.7,12.9c-5.3,3.2-11.3,4.9-17.4,5.1c-6.1,0.2-12.2-1.1-17.7-3.9
		c-21.2,0-139.4-139.7-139.4-139.7c-7.4-9-11.8-20.1-12.7-31.7c-1-7.7-0.1-15.6,2.4-23C300.1,229.3,304.3,222.6,309.8,217.1z"/>
	
		<linearGradient id="SVGID_4_" gradientUnits="userSpaceOnUse" x1="295.5959" y1="254.0548" x2="503.0002" y2="254.0548" gradientTransform="matrix(-1 0 0 -1 511 509)">
		<stop  offset="0" style="stop-color:#00A5F0"/>
		<stop  offset="1" style="stop-color:#00D7D7;stop-opacity:0"/>
	</linearGradient>
	<path class="st3" d="M200.3,217.3c0,0-118.3-139.9-139.3-139.9c-5.9-2.2-12.2-2.9-18.4-2.2c-6.2,0.8-12.1,3-17.3,6.5
		c-5.2,3.5-9.4,8.2-12.4,13.8c-3,5.5-4.6,11.7-4.8,17.9c0,0-2.1,10.6,17,50.9c0,0,46.3,91.1,6.2,169.5l-16.8,42.5
		c-3.6,7.2-5.1,15.3-4.3,23.3c4.3,50.9,52.9,31.7,52.9,31.7c21,0,139.3-139.9,139.3-139.9c7.4-9,11.8-20.1,12.7-31.7
		c0.9-7.7,0-15.6-2.5-23C210,229.5,205.8,222.8,200.3,217.3L200.3,217.3z"/>
</g>
</svg>
