<?xml version="1.0" encoding="utf-8"?>
<!-- Generator: Adobe Illustrator 25.2.1, SVG Export Plug-In . SVG Version: 6.00 Build 0)  -->
<svg version="1.1" id="Camada_1" xmlns="http://www.w3.org/2000/svg" xmlns:xlink="http://www.w3.org/1999/xlink" x="0px" y="0px"
	 viewBox="0 0 638 463" style="enable-background:new 0 0 638 463;" xml:space="preserve">
<style type="text/css">
	.st0{opacity:0.6;}
	.st1{fill-rule:evenodd;clip-rule:evenodd;fill:#FDFDFD;}
</style>
<g class="st0">
	<path class="st1" d="M305.9,238.3c0,0,60.5-173.6,48.1-190.8c0,0-7.9-46.6-56-25.8c0,0-11.1,1.7-34.8,39.6c0,0-52.4,84-139.1,88.2
		l-45.6,4.7c-7.8,0.8-15.4,3.6-21.9,8c-5.4,3-9.9,7.3-13.1,12.7c-3.2,5.3-4.8,11.4-4.9,17.6c-0.1,6.2,1.5,12.3,4.6,17.7
		c3.1,5.4,7.5,9.9,12.8,13.1c9.9,21.1,189.7,52.6,189.7,52.6c10.7,0.9,21.4-0.3,31.5-3.7c7.1-2.9,13.4-7.5,18.4-13.3
		c5-5.9,8.5-12.8,10.3-20.4L305.9,238.3z"/>
	<path class="st1" d="M360.8,332.8c0,0,181,33.7,189.9,53c0,0,36.5,29.8-5.3,61.5c0,0-7,8.8-51.8,10.5c0,0-98.9,4-145.4,77.3
		l-26.7,37.3c-4.5,6.5-10.6,11.7-17.7,15.3c-5.3,3.2-11.3,5-17.5,5.1c-6.2,0.1-12.3-1.4-17.7-4.5c-5.4-3-10-7.4-13.2-12.8
		c-3.2-5.3-4.9-11.4-5-17.7c-13.4-19,47.9-191.2,47.9-191.2c4.5-9.7,10.9-18.4,18.8-25.6C330.1,332.7,345.7,329.7,360.8,332.8
		L360.8,332.8z"/>
	<path class="st1" d="M271.1,365.7c0,0-31.9,179.8-50.2,190.4c-4,4.8-9,8.6-14.8,11.1c-5.7,2.5-12,3.5-18.2,3.1
		c-6.2-0.5-12.3-2.4-17.6-5.6c-5.3-3.3-9.8-7.7-13-13.1c0,0-7.3-8-10.9-52.3c0,0-3.7-102.8-79.3-149.2l-36-28.1
		c-6.6-4.5-11.9-10.7-15.3-18c-3-5.4-4.5-11.4-4.5-17.6c0-6.1,1.5-12.2,4.5-17.6s7.2-9.9,12.4-13.2c5.2-3.3,11.1-5.1,17.3-5.5
		c18.3-10.6,190.3,50.6,190.3,50.6c10.9,4.1,20.2,11.4,26.8,21c4.7,6.2,7.9,13.4,9.4,21C273.4,350.3,273.1,358.2,271.1,365.7z"/>
	<path class="st1" d="M365.5,310.7c0,0,172.2,61.3,190.3,50.8c6.2-1.1,12-3.6,16.9-7.4c5-3.8,9-8.7,11.7-14.3
		c2.7-5.6,4-11.8,3.8-18.1c-0.2-6.3-1.8-12.4-4.9-17.9c0,0-3.5-10.2-40.2-35.3c0,0-85.6-55.4-90.3-143.1L446,80.3
		c-0.5-8-3.3-15.8-8-22.3c-29.2-41.7-61.5-0.8-61.5-0.8c-18.1,10.5-50.1,190.5-50.1,190.5c-1.8,11.5-0.1,23.2,5,33.7
		c3.1,7.1,7.8,13.5,13.7,18.5C351,305,358,308.7,365.5,310.7L365.5,310.7z"/>
</g>
</svg>
