<?xml version="1.0" encoding="utf-8"?>
<!-- Generator: Adobe Illustrator 25.2.1, SVG Export Plug-In . SVG Version: 6.00 Build 0)  -->
<svg version="1.1" id="Camada_1" xmlns="http://www.w3.org/2000/svg" xmlns:xlink="http://www.w3.org/1999/xlink" x="0px" y="0px"
	 viewBox="0 0 377 423" style="enable-background:new 0 0 377 423;" xml:space="preserve">
<style type="text/css">
	.st0{fill-rule:evenodd;clip-rule:evenodd;fill:url(#SVGID_1_);}
</style>
<linearGradient id="SVGID_1_" gradientUnits="userSpaceOnUse" x1="-30.9985" y1="343.6111" x2="352.1949" y2="131.1607" gradientTransform="matrix(1 0 0 -1 0 423.89)">
	<stop  offset="0" style="stop-color:#00A5F0"/>
	<stop  offset="1" style="stop-color:#00D7D7;stop-opacity:0"/>
</linearGradient>
<path class="st0" d="M231.5,173.6c0,0,96.4-82.7,95-97.3c0,0,11.5-30.6-24.5-34.8c0,0-7.2-2.9-34.5,11.6c0,0-60.4,32-113.7,4.4
	l-28.9-13c-5-2.2-10.4-3.2-15.9-2.9c-4.3-0.1-8.5,0.9-12.2,3c-3.7,2.1-6.8,5.1-9,8.8c-2.2,3.7-3.4,7.9-3.4,12.2
	c-0.1,4.3,1,8.5,3.1,12.3c-1.4,16,95,97.3,95,97.3c6,4.3,12.9,7.2,20.1,8.7c5.3,0.7,10.6,0.2,15.6-1.6c5-1.8,9.6-4.7,13.2-8.6V173.6
	z M231.5,249c0,0,96.4,83,95,97.6c0,0,11.5,30.5-24.5,34.9c0,0-7.2,2.9-34.5-11.7c0,0-60.4-31.9-113.7-4.3l-28.9,13
	c-5,2.3-10.4,3.3-15.9,3c-4.3,0.1-8.5-0.9-12.2-3c-3.7-2.1-6.8-5.1-9-8.8s-3.4-7.9-3.4-12.2c-0.1-4.3,1-8.5,3.1-12.3
	c-1.4-16,95-97.6,95-97.6c6-4.3,12.9-7.2,20.1-8.7C213.2,238.3,223.6,242,231.5,249L231.5,249z M166.5,237.6
	c0,0-81.5,96.3-96.1,96.3c-4,1.5-8.4,2-12.7,1.5c-4.3-0.5-8.4-2.1-11.9-4.5c-3.6-2.4-6.5-5.7-8.5-9.5c-2.1-3.8-3.2-8-3.3-12.3
	c0,0-1.6-7.3,11.6-35c0,0,33.5-62.7,4.4-116.6l-11.7-29.3c-2.4-5-3.4-10.5-2.9-16.1c0.1-4.2,1.3-8.4,3.4-12.1
	c2.1-3.7,5.2-6.7,8.8-8.9c3.6-2.2,7.8-3.4,12-3.5c4.2-0.1,8.4,0.8,12.2,2.7c14.6,0,96.1,96.3,96.1,96.3c5.1,6.2,8.1,13.8,8.7,21.8
	c0.7,5.3,0.1,10.7-1.7,15.8C173.2,229.2,170.3,233.8,166.5,237.6z M242,237.4c0,0,81.5,96.4,96,96.4c4,1.5,8.4,2,12.7,1.5
	c4.3-0.5,8.4-2.1,11.9-4.5c3.6-2.4,6.5-5.7,8.6-9.5c2.1-3.8,3.2-8,3.3-12.4c0,0,1.4-7.3-11.7-35c0,0-31.9-62.8-4.3-116.8l11.6-29.3
	c2.5-5,3.5-10.5,3-16.1c-3-35-36.5-21.8-36.5-21.8c-14.5,0-96,96.4-96,96.4c-5.1,6.2-8.1,13.8-8.7,21.8c-0.6,5.3,0,10.7,1.7,15.8
	C235.3,229,238.2,233.6,242,237.4L242,237.4z"/>
</svg>
