<?xml version="1.0" encoding="utf-8"?>
<!-- Generator: Adobe Illustrator 25.2.1, SVG Export Plug-In . SVG Version: 6.00 Build 0)  -->
<svg version="1.1" id="Camada_1" xmlns="http://www.w3.org/2000/svg" xmlns:xlink="http://www.w3.org/1999/xlink" x="0px" y="0px"
	 viewBox="0 0 65 65" style="enable-background:new 0 0 65 65;" xml:space="preserve">
<style type="text/css">
	.st0{fill:url(#SVGID_1_);}
	.st1{fill-rule:evenodd;clip-rule:evenodd;fill:#FDFDFD;}
</style>
<linearGradient id="SVGID_1_" gradientUnits="userSpaceOnUse" x1="-0.5606" y1="39.5314" x2="66.5888" y2="27.0576" gradientTransform="matrix(1 0 0 -1 0 65.89)">
	<stop  offset="0" style="stop-color:#00A5F0"/>
	<stop  offset="1" style="stop-color:#00D7D7"/>
</linearGradient>
<path class="st0" d="M8,0h49c4.4,0,8,3.6,8,8v49c0,4.4-3.6,8-8,8H8c-4.4,0-8-3.6-8-8V8C0,3.6,3.6,0,8,0z"/>
<g>
	<path class="st1" d="M35.4,28.5c0,0,10.1-8.6,9.9-10.2c0,0,1.2-3.2-2.6-3.6c0,0-0.8-0.3-3.6,1.2c0,0-6.3,3.3-11.9,0.5l-3-1.4
		c-0.5-0.2-1.1-0.3-1.7-0.3c-0.4,0-0.9,0.1-1.3,0.3c-0.4,0.2-0.7,0.5-0.9,0.9c-0.2,0.4-0.4,0.8-0.4,1.3c0,0.4,0.1,0.9,0.3,1.3
		c-0.1,1.7,9.9,10.2,9.9,10.2c0.6,0.4,1.3,0.8,2.1,0.9c0.5,0.1,1.1,0,1.6-0.2C34.5,29.3,35,29,35.4,28.5L35.4,28.5z"/>
	<path class="st1" d="M35.4,36.4c0,0,10.1,8.7,9.9,10.2c0,0,1.2,3.2-2.6,3.6c0,0-0.8,0.3-3.6-1.2c0,0-6.3-3.3-11.9-0.4l-3,1.4
		c-0.5,0.2-1.1,0.3-1.7,0.3c-0.4,0-0.9-0.1-1.3-0.3c-0.4-0.2-0.7-0.5-0.9-0.9c-0.2-0.4-0.4-0.8-0.4-1.3c0-0.4,0.1-0.9,0.3-1.3
		c-0.1-1.7,9.9-10.2,9.9-10.2c0.6-0.4,1.3-0.8,2.1-0.9C33.4,35.3,34.5,35.7,35.4,36.4L35.4,36.4z"/>
	<path class="st1" d="M28.6,35.2c0,0-8.5,10.1-10,10.1c-0.4,0.2-0.9,0.2-1.3,0.2c-0.4-0.1-0.9-0.2-1.2-0.5c-0.4-0.3-0.7-0.6-0.9-1
		c-0.2-0.4-0.3-0.8-0.3-1.3c0,0-0.2-0.8,1.2-3.7c0,0,3.5-6.5,0.5-12.2l-1.2-3.1c-0.3-0.5-0.4-1.1-0.3-1.7c0-0.4,0.1-0.9,0.4-1.3
		c0.2-0.4,0.5-0.7,0.9-0.9c0.4-0.2,0.8-0.4,1.3-0.4c0.4,0,0.9,0.1,1.3,0.3c1.5,0,10,10.1,10,10.1c0.5,0.6,0.8,1.4,0.9,2.3
		c0.1,0.6,0,1.1-0.2,1.7C29.3,34.3,29,34.8,28.6,35.2z"/>
	<path class="st1" d="M36.4,35.2c0,0,8.5,10.1,10,10.1c0.4,0.2,0.9,0.2,1.3,0.2c0.4-0.1,0.9-0.2,1.2-0.5c0.4-0.3,0.7-0.6,0.9-1
		c0.2-0.4,0.3-0.8,0.3-1.3c0,0,0.1-0.8-1.2-3.7c0,0-3.3-6.6-0.4-12.2l1.2-3.1c0.3-0.5,0.4-1.1,0.3-1.7c-0.3-3.7-3.8-2.3-3.8-2.3
		c-1.5,0-10,10.1-10,10.1c-0.5,0.6-0.8,1.4-0.9,2.3c-0.1,0.6,0,1.1,0.2,1.7C35.7,34.3,36,34.8,36.4,35.2L36.4,35.2z"/>
</g>
</svg>
