<svg width="81" height="81" viewBox="0 0 81 81" fill="none" xmlns="http://www.w3.org/2000/svg">
<path fill-rule="evenodd" clip-rule="evenodd" d="M46.9898 31.4811C46.9898 31.4811 69.9233 11.8088 69.586 8.34443C69.586 8.34443 72.3148 1.07556 63.7607 0.054827C63.7607 0.054827 62.0437 -0.625619 55.5438 2.80777C55.5438 2.80777 41.1644 10.4168 28.5019 3.85933L21.634 0.76619C20.4491 0.238184 19.1558 0.00490844 17.8629 0.0857886C16.8501 0.0627062 15.8493 0.310756 14.9625 0.804703C14.0756 1.29865 13.3343 2.0207 12.814 2.89763C12.2937 3.77457 12.013 4.77494 12.0004 5.79689C11.9879 6.81884 12.244 7.82596 12.7427 8.71559C12.4054 12.5202 35.339 31.8522 35.339 31.8522C36.7755 32.8666 38.4036 33.5722 40.1219 33.9248C41.3742 34.0985 42.6495 33.9703 43.8432 33.551C45.037 33.1316 46.1152 32.4328 46.9898 31.512V31.4811Z" fill="#FDFDFD"/>
<path fill-rule="evenodd" clip-rule="evenodd" d="M46.9898 49.4311C46.9898 49.4311 69.9233 69.1704 69.586 72.641C69.586 72.641 72.3148 79.8922 63.7607 80.9458C63.7607 80.9458 62.0437 81.6274 55.5438 78.1568C55.5438 78.1568 41.1644 70.5649 28.5019 77.1343L21.634 80.2331C20.4531 80.7774 19.1586 81.022 17.8629 80.9458C16.8501 80.9689 15.8493 80.7204 14.9625 80.2256C14.0756 79.7307 13.3343 79.0071 12.814 78.1286C12.2937 77.2501 12.013 76.2479 12.0004 75.224C11.9879 74.2002 12.244 73.1915 12.7427 72.3002C12.4054 68.4887 35.339 49.0902 35.339 49.0902C36.7755 48.074 38.4036 47.3671 40.1219 47.0139C42.6362 46.8778 45.1029 47.7459 46.9898 49.4311V49.4311Z" fill="#FDFDFD"/>
<path fill-rule="evenodd" clip-rule="evenodd" d="M31.5182 46.6978C31.5182 46.6978 12.138 69.598 8.66508 69.598C7.70443 69.9553 6.67237 70.077 5.65518 69.9528C4.63799 69.8287 3.66522 69.4623 2.81826 68.8843C1.9713 68.3064 1.27476 67.5337 0.78684 66.6307C0.298924 65.7278 0.0338106 64.7208 0.0137127 63.6942C0.0137127 63.6942 -0.358342 61.9542 2.7735 55.3669C2.7735 55.3669 10.7426 40.4523 3.82778 27.6195L1.03704 20.6593C0.46359 19.4724 0.227556 18.1501 0.354854 16.8375C0.376552 15.8282 0.653446 14.8409 1.15968 13.9681C1.66592 13.0953 2.38488 12.3656 3.2493 11.8471C4.11372 11.3286 5.09537 11.0383 6.10221 11.0035C7.10905 10.9688 8.10816 11.1907 9.00612 11.6483C12.4791 11.6483 31.8594 34.5485 31.8594 34.5485C33.0654 36.0244 33.7905 37.8357 33.9369 39.7377C34.0938 41.006 33.9572 42.2934 33.5378 43.5003C33.1184 44.7073 32.4274 45.8014 31.5182 46.6978Z" fill="#FDFDFD"/>
<path fill-rule="evenodd" clip-rule="evenodd" d="M49.4738 46.6718C49.4738 46.6718 68.8726 69.5993 72.3123 69.5993C73.2742 69.956 74.3069 70.077 75.3248 69.9525C76.3426 69.828 77.3162 69.4617 78.1647 68.8837C79.0131 68.3057 79.712 67.5328 80.2032 66.6293C80.6944 65.7257 80.9639 64.7175 80.9891 63.6885C80.9891 63.6885 81.33 61.9464 78.2001 55.3512C78.2001 55.3512 70.608 40.4187 77.1776 27.5706L79.9355 20.6021C80.5255 19.4189 80.7725 18.0931 80.6483 16.7757C79.9355 8.43843 71.9714 11.5803 71.9714 11.5803C68.5317 11.5803 49.1329 34.5079 49.1329 34.5079C47.9276 35.9856 47.203 37.7991 47.0567 39.7033C46.9093 40.9727 47.0501 42.259 47.4688 43.4659C47.8874 44.6728 48.5729 45.7689 49.4738 46.6718V46.6718Z" fill="#FDFDFD"/>
</svg>
